<?xml version="1.0" encoding="UTF-8"?>
<svg version="1.1" xmlns="http://www.w3.org/2000/svg" width="800" height="800">
<path d="M0 0 C2.59859357 -0.00417626 5.19718531 -0.00965538 7.79577368 -0.01631981 C13.43060443 -0.02864509 19.06535185 -0.02991714 24.7001915 -0.02376938 C33.07976312 -0.01465163 41.45925813 -0.02273172 49.8388239 -0.03406062 C64.80848315 -0.05370069 79.77810774 -0.05608003 94.7477768 -0.05086542 C107.85005139 -0.04630371 120.95231227 -0.04691307 134.05458641 -0.05270576 C135.81385149 -0.05346264 137.57311658 -0.05421862 139.33238166 -0.05497371 C141.98362046 -0.05611894 144.63485925 -0.05726882 147.28609804 -0.05843295 C171.92674236 -0.069134 196.56738212 -0.07386728 221.20802784 -0.06596279 C222.60055138 -0.06551703 222.60055138 -0.06551703 224.02120671 -0.06506227 C231.55947197 -0.06261347 239.09773718 -0.06000181 246.63600238 -0.05737813 C276.03573288 -0.04727697 305.43540625 -0.05563023 334.83512878 -0.07887268 C367.88766513 -0.10496082 400.94016709 -0.11778904 433.99271411 -0.11068493 C437.51886188 -0.1099689 441.04500967 -0.10929451 444.57115746 -0.10864449 C445.43934506 -0.10847468 446.30753267 -0.10830487 447.20202899 -0.10812991 C460.29158801 -0.10582963 473.38111504 -0.11379099 486.47066689 -0.12693596 C501.36187853 -0.14186381 516.25301533 -0.14266815 531.1442254 -0.12486505 C539.47025649 -0.11531992 547.79611291 -0.11670023 556.12213224 -0.13409974 C562.34969926 -0.14586444 568.57707187 -0.13656947 574.80462226 -0.11927737 C577.31592897 -0.11551724 579.82725692 -0.11843958 582.3385447 -0.12888902 C613.13410937 -0.24787171 639.23147634 7.56504816 661.61125183 29.4228363 C684.3427137 52.33091037 689.9827931 79.70481457 689.90127563 110.87408447 C689.9054519 113.47267804 689.91093102 116.07126978 689.91759545 118.66985816 C689.92992073 124.3046889 689.93119278 129.93943632 689.92504501 135.57427597 C689.91592727 143.95384759 689.92400735 152.33334261 689.93533625 160.71290837 C689.95497632 175.68256763 689.95735566 190.65219221 689.95214105 205.62186128 C689.94757934 218.72413586 689.94818871 231.82639674 689.9539814 244.92867088 C689.95473827 246.68793597 689.95549425 248.44720105 689.95624935 250.20646613 C689.95739457 252.85770493 689.95854445 255.50894373 689.95970859 258.16018251 C689.97040964 282.80082683 689.97514291 307.4414666 689.96723843 332.08211231 C689.96679267 333.47463585 689.96679267 333.47463585 689.9663379 334.89529118 C689.9638891 342.43355644 689.96127745 349.97182165 689.95865377 357.51008686 C689.94855261 386.90981735 689.95690587 416.30949073 689.98014832 445.70921326 C690.00623646 478.7617496 690.01906468 511.81425156 690.01196057 544.86679858 C690.01124453 548.39294636 690.01057014 551.91909414 690.00992012 555.44524193 C690.00975031 556.31342953 690.0095805 557.18161714 690.00940555 558.07611346 C690.00710526 571.16567248 690.01506662 584.25519951 690.02821159 597.34475136 C690.04313944 612.235963 690.04394378 627.12709981 690.02614068 642.01830987 C690.01659555 650.34434096 690.01797587 658.67019738 690.03537537 666.99621672 C690.04714008 673.22378373 690.03784511 679.45115634 690.020553 685.67870673 C690.01679287 688.19001344 690.01971522 690.70134139 690.03016465 693.21262918 C690.14914734 724.00819384 682.33622748 750.10556081 660.47843933 772.4853363 C637.57036526 795.21679817 610.19646106 800.85687757 579.02719116 800.77536011 C576.4285976 800.77953637 573.83000585 800.78501549 571.23141748 800.79167992 C565.59658673 800.8040052 559.96183931 800.80527725 554.32699966 800.79912949 C545.94742804 800.79001174 537.56793303 800.79809182 529.18836727 800.80942073 C514.21870801 800.8290608 499.24908343 800.83144014 484.27941436 800.82622553 C471.17713978 800.82166382 458.0748789 800.82227318 444.97260475 800.82806587 C443.21333967 800.82882275 441.45407458 800.82957873 439.6948095 800.83033382 C437.0435707 800.83147904 434.39233191 800.83262892 431.74109312 800.83379306 C407.1004488 800.84449411 382.45980904 800.84922739 357.81916332 800.8413229 C356.8908143 800.84102573 355.96246527 800.84072855 355.00598445 800.84042237 C347.46771919 800.83797358 339.92945398 800.83536192 332.39118878 800.83273824 C302.99145828 800.82263708 273.59178491 800.83099034 244.19206238 800.85423279 C211.13952603 800.88032093 178.08702407 800.89314915 145.03447706 800.88604504 C141.50832928 800.88532901 137.9821815 800.88465462 134.45603371 800.88400459 C133.1537523 800.88374988 133.1537523 800.88374988 131.82516217 800.88349002 C118.73560315 800.88118974 105.64607612 800.8891511 92.55652428 800.90229607 C77.66531264 800.91722392 62.77417583 800.91802825 47.88296577 800.90022516 C39.55693468 800.89068002 31.23107825 800.89206034 22.90505892 800.90945984 C16.67749191 800.92122455 10.45011929 800.91192958 4.22256891 800.89463747 C1.7112622 800.89087735 -0.80006576 800.89379969 -3.31135354 800.90424912 C-34.10691821 801.02323182 -60.20428517 793.21031195 -82.58406067 771.3525238 C-105.31552254 748.44444973 -110.95560193 721.07054554 -110.87408447 689.90127563 C-110.87826074 687.30268207 -110.88373986 684.70409033 -110.89040428 682.10550195 C-110.90272957 676.47067121 -110.90400161 670.83592378 -110.89785385 665.20108414 C-110.8887361 656.82151252 -110.89681619 648.4420175 -110.90814509 640.06245174 C-110.92778516 625.09279248 -110.9301645 610.1231679 -110.92494989 595.15349883 C-110.92038818 582.05122425 -110.92099755 568.94896337 -110.92679024 555.84668922 C-110.92754711 554.08742414 -110.92830309 552.32815906 -110.92905818 550.56889397 C-110.93020341 547.91765518 -110.93135329 545.26641638 -110.93251743 542.61517759 C-110.94321848 517.97453327 -110.94795175 493.33389351 -110.94004726 468.6932478 C-110.93975009 467.76489877 -110.93945292 466.83654974 -110.93914674 465.88006893 C-110.93669794 458.34180366 -110.93408629 450.80353846 -110.93146261 443.26527325 C-110.92136144 413.86554276 -110.9297147 384.46586938 -110.95295715 355.06614685 C-110.97904529 322.01361051 -110.99187352 288.96110855 -110.9847694 255.90856153 C-110.98405337 252.38241375 -110.98337898 248.85626597 -110.98272896 245.33011818 C-110.98255915 244.46193057 -110.98238934 243.59374297 -110.98221439 242.69924664 C-110.9799141 229.60968763 -110.98787546 216.5201606 -111.00102043 203.43060875 C-111.01594828 188.53939711 -111.01675262 173.6482603 -110.99894952 158.75705024 C-110.98940439 150.43101915 -110.9907847 142.10516273 -111.00818421 133.77914339 C-111.01994892 127.55157638 -111.01065394 121.32420377 -110.99336184 115.09665338 C-110.98960171 112.58534667 -110.99252406 110.07401872 -111.00297349 107.56273093 C-111.12195618 76.76716626 -103.30903631 50.6697993 -81.45124817 28.2900238 C-58.5431741 5.55856193 -31.1692699 -0.08151746 0 0 Z M103.51359558 172.38768005 C103.51359558 319.23768005 103.51359558 466.08768005 103.51359558 617.38768005 C132.55359558 617.38768005 161.59359558 617.38768005 191.51359558 617.38768005 C191.84359558 592.96768005 192.17359558 568.54768005 192.51359558 543.38768005 C194.82359558 548.66768005 197.13359558 553.94768005 199.51359558 559.38768005 C205.60407808 571.43906031 213.25535053 581.58764442 222.51359558 591.38768005 C223.21097839 592.14951599 223.90836121 592.91135193 224.62687683 593.6962738 C245.34094008 615.54639171 277.74751402 627.32622235 307.42497253 628.54881287 C308.78387303 628.56829791 310.14286462 628.58208493 311.50187683 628.59080505 C312.23838974 628.59786469 312.97490265 628.60492432 313.73373413 628.61219788 C336.3001465 628.89618908 336.3001465 628.89618908 358.51359558 625.38768005 C359.68487 625.10561707 359.68487 625.10561707 360.87980652 624.81785583 C394.11747789 616.5577228 422.69408097 597.31265442 442.51359558 569.38768005 C443.28058777 568.31389099 444.04757996 567.24010193 444.83781433 566.1337738 C470.6543954 527.97209114 476.58592898 482.48478774 475.51359558 437.38768005 C475.49957703 436.59023376 475.48555847 435.79278748 475.47111511 434.97117615 C474.87215143 405.60960618 468.61656782 376.71955411 455.51359558 350.38768005 C455.18214539 349.71382263 454.85069519 349.03996521 454.50920105 348.34568787 C438.22842706 315.56144244 410.7032874 290.23503348 375.94767761 278.30345154 C360.12464923 273.22475193 344.20528186 271.15222131 327.63859558 271.13768005 C326.60264252 271.13666794 326.60264252 271.13666794 325.54576111 271.13563538 C314.61539243 271.15257604 304.15525812 271.75665767 293.51359558 274.38768005 C292.8276532 274.54865173 292.14171082 274.70962341 291.4349823 274.87547302 C258.67322744 282.75737429 233.92994106 302.76316184 215.51359558 330.38768005 C215.18359558 278.24768005 214.85359558 226.10768005 214.51359558 172.38768005 C177.88359558 172.38768005 141.25359558 172.38768005 103.51359558 172.38768005 Z " fill="#B2FF4D" transform="translate(110.48640441894531,-0.3876800537109375)"/>
<path d="M0 0 C18.18630672 14.41425147 26.70049195 33.68124748 30.85253906 55.88085938 C33.90361727 84.3767785 30.32542063 113.55708295 12.51660156 136.87304688 C0.33278461 151.40167388 -15.05527116 161.21692627 -34.12402344 163.27539062 C-55.55896004 165.11893681 -76.42701848 159.87969645 -93.51464844 146.58398438 C-96.02497281 144.39132451 -98.38886887 142.1164596 -100.73339844 139.74804688 C-101.50296875 139.01199219 -102.27253906 138.2759375 -103.06542969 137.51757812 C-119.20346817 121.10461565 -121.95933894 99.74053611 -121.92089844 77.68554688 C-121.91996185 76.99485107 -121.91902527 76.30415527 -121.9180603 75.5925293 C-121.83698254 48.05324929 -116.55519277 26.5698412 -96.58105469 6.59570312 C-71.62265762 -16.91844674 -27.94381897 -20.18252165 0 0 Z " fill="#B2FF4D" transform="translate(443.7333984375,374.251953125)"/>
</svg>
